<?xml version="1.0" standalone="no"?>
<!DOCTYPE svg PUBLIC "-//W3C//DTD SVG 20010904//EN"
 "http://www.w3.org/TR/2001/REC-SVG-20010904/DTD/svg10.dtd">
<svg version="1.0" xmlns="http://www.w3.org/2000/svg"
 width="1433.000000pt" height="1423.000000pt" viewBox="0 0 1433.000000 1423.000000"
 preserveAspectRatio="xMidYMid meet">

<g transform="translate(0.000000,1423.000000) scale(0.100000,-0.100000)"
fill="#000000" stroke="none">
<path d="M95 14201 c-64 -38 -89 -118 -58 -183 19 -40 14013 -13955 14068
-13989 64 -40 166 -14 200 50 15 31 19 88 9 129 -8 27 -14032 13969 -14077
13995 -41 22 -104 22 -142 -2z"/>
<path d="M14102 14184 c-49 -34 -4768 -4667 -4784 -4697 -52 -93 18 -210 126
-210 22 0 53 6 67 14 15 8 1036 1004 2270 2214 l2244 2200 5 -4485 c5 -4316 6
-4486 23 -4512 60 -88 184 -87 245 2 l22 33 0 4674 c0 4273 -1 4678 -16 4709
-9 18 -31 43 -49 54 -40 25 -121 27 -153 4z"/>
<path d="M95 9780 c-27 -11 -61 -49 -74 -83 -8 -20 -11 -1431 -11 -4753 0
-4129 2 -4729 15 -4753 27 -53 71 -81 126 -81 62 0 101 19 128 63 l21 34 0
4542 c0 2497 3 4541 8 4541 4 0 1047 -1009 2317 -2242 1271 -1232 2324 -2249
2340 -2259 57 -35 146 -15 188 42 25 34 33 101 17 139 -12 30 -4881 4764
-4939 4802 -27 19 -101 23 -136 8z"/>
</g>
</svg>
